<mxfile host="app.diagrams.net" modified="2023-03-27T19:25:59.070Z" agent="Mozilla/5.0 (Macintosh; Intel Mac OS X 10_15_7) AppleWebKit/537.36 (KHTML, like Gecko) Chrome/111.0.0.0 Safari/537.36" etag="eTfjvtj0utE3SLInC3iu" version="21.1.1" type="github" pages="2">
  <diagram name="Page-1" id="UHZl944SAC1hnp8KD7Ga">
    <mxGraphModel dx="1194" dy="616" grid="1" gridSize="10" guides="1" tooltips="1" connect="1" arrows="1" fold="1" page="1" pageScale="1" pageWidth="827" pageHeight="1169" math="0" shadow="0">
      <root>
        <mxCell id="0" />
        <mxCell id="1" parent="0" />
        <mxCell id="Yto9Z8n8FKqg5uBb4XyI-1" value="" style="rounded=0;whiteSpace=wrap;html=1;" parent="1" vertex="1">
          <mxGeometry x="330" y="30" width="200" height="80" as="geometry" />
        </mxCell>
        <mxCell id="Yto9Z8n8FKqg5uBb4XyI-2" value="Front End" style="text;html=1;strokeColor=none;fillColor=none;align=center;verticalAlign=middle;whiteSpace=wrap;rounded=0;" parent="1" vertex="1">
          <mxGeometry x="400" width="60" height="40" as="geometry" />
        </mxCell>
        <mxCell id="Yto9Z8n8FKqg5uBb4XyI-3" value="" style="verticalLabelPosition=bottom;html=1;verticalAlign=top;align=center;strokeColor=none;fillColor=#00BEF2;shape=mxgraph.azure.tablet;pointerEvents=1;" parent="1" vertex="1">
          <mxGeometry x="414" y="52.5" width="50" height="37.5" as="geometry" />
        </mxCell>
        <mxCell id="Yto9Z8n8FKqg5uBb4XyI-4" value="" style="sketch=0;pointerEvents=1;shadow=0;dashed=0;html=1;strokeColor=none;fillColor=#505050;labelPosition=center;verticalLabelPosition=bottom;verticalAlign=top;outlineConnect=0;align=center;shape=mxgraph.office.devices.cell_phone_iphone_proportional;" parent="1" vertex="1">
          <mxGeometry x="480" y="61" width="17" height="29" as="geometry" />
        </mxCell>
        <mxCell id="Yto9Z8n8FKqg5uBb4XyI-5" value="" style="sketch=0;outlineConnect=0;gradientColor=none;fontColor=#545B64;strokeColor=none;fillColor=#879196;dashed=0;verticalLabelPosition=bottom;verticalAlign=top;align=center;html=1;fontSize=12;fontStyle=0;aspect=fixed;shape=mxgraph.aws4.illustration_desktop;pointerEvents=1" parent="1" vertex="1">
          <mxGeometry x="340" y="49.1" width="60.05" height="54.65" as="geometry" />
        </mxCell>
        <mxCell id="Yto9Z8n8FKqg5uBb4XyI-6" value="" style="shape=flexArrow;endArrow=classic;startArrow=classic;html=1;rounded=0;entryX=0.5;entryY=1;entryDx=0;entryDy=0;strokeColor=#AD8FFF;fillColor=#7EA6E0;exitX=0.5;exitY=0;exitDx=0;exitDy=0;" parent="1" source="Yto9Z8n8FKqg5uBb4XyI-7" target="Yto9Z8n8FKqg5uBb4XyI-1" edge="1">
          <mxGeometry width="100" height="100" relative="1" as="geometry">
            <mxPoint x="430" y="190" as="sourcePoint" />
            <mxPoint x="460" y="240" as="targetPoint" />
          </mxGeometry>
        </mxCell>
        <mxCell id="Yto9Z8n8FKqg5uBb4XyI-7" value="API&lt;br&gt;gateway" style="whiteSpace=wrap;html=1;aspect=fixed;" parent="1" vertex="1">
          <mxGeometry x="390" y="190" width="80" height="80" as="geometry" />
        </mxCell>
        <mxCell id="Yto9Z8n8FKqg5uBb4XyI-9" value="" style="endArrow=classic;startArrow=classic;html=1;rounded=0;exitX=0.7;exitY=-0.03;exitDx=0;exitDy=0;exitPerimeter=0;" parent="1" source="Yto9Z8n8FKqg5uBb4XyI-10" edge="1">
          <mxGeometry width="50" height="50" relative="1" as="geometry">
            <mxPoint x="230" y="380" as="sourcePoint" />
            <mxPoint x="395.03" y="270" as="targetPoint" />
          </mxGeometry>
        </mxCell>
        <mxCell id="Yto9Z8n8FKqg5uBb4XyI-10" value="Registrasjon" style="rounded=1;whiteSpace=wrap;html=1;" parent="1" vertex="1">
          <mxGeometry x="60" y="380" width="90" height="40" as="geometry" />
        </mxCell>
        <mxCell id="Yto9Z8n8FKqg5uBb4XyI-12" value="Authentikasjon" style="rounded=1;whiteSpace=wrap;html=1;" parent="1" vertex="1">
          <mxGeometry x="180" y="380" width="90" height="40" as="geometry" />
        </mxCell>
        <mxCell id="Yto9Z8n8FKqg5uBb4XyI-13" value="Felleslister" style="rounded=1;whiteSpace=wrap;html=1;" parent="1" vertex="1">
          <mxGeometry x="368.5" y="480" width="61.5" height="40" as="geometry" />
        </mxCell>
        <mxCell id="Yto9Z8n8FKqg5uBb4XyI-14" value="Handlelister" style="rounded=1;whiteSpace=wrap;html=1;" parent="1" vertex="1">
          <mxGeometry x="320" y="383.75" width="80" height="37.5" as="geometry" />
        </mxCell>
        <mxCell id="Yto9Z8n8FKqg5uBb4XyI-15" value="Betaling" style="rounded=1;whiteSpace=wrap;html=1;" parent="1" vertex="1">
          <mxGeometry x="440" y="380" width="90" height="40" as="geometry" />
        </mxCell>
        <mxCell id="Yto9Z8n8FKqg5uBb4XyI-16" value="Direktemeldinger" style="rounded=1;whiteSpace=wrap;html=1;" parent="1" vertex="1">
          <mxGeometry x="570" y="381.25" width="90" height="38.75" as="geometry" />
        </mxCell>
        <mxCell id="Yto9Z8n8FKqg5uBb4XyI-17" value="Ordrelister" style="rounded=1;whiteSpace=wrap;html=1;" parent="1" vertex="1">
          <mxGeometry x="300" y="480" width="60" height="40" as="geometry" />
        </mxCell>
        <mxCell id="Yto9Z8n8FKqg5uBb4XyI-18" value="Vipps" style="rounded=1;whiteSpace=wrap;html=1;" parent="1" vertex="1">
          <mxGeometry x="465" y="480" width="40" height="35" as="geometry" />
        </mxCell>
        <mxCell id="Yto9Z8n8FKqg5uBb4XyI-19" value="SluttoppgjÃ¸r" style="rounded=1;whiteSpace=wrap;html=1;" parent="1" vertex="1">
          <mxGeometry x="700" y="381.25" width="90" height="40" as="geometry" />
        </mxCell>
        <mxCell id="Yto9Z8n8FKqg5uBb4XyI-24" value="" style="endArrow=classic;startArrow=classic;html=1;rounded=0;exitX=0.5;exitY=0;exitDx=0;exitDy=0;entryX=0.175;entryY=1.044;entryDx=0;entryDy=0;entryPerimeter=0;" parent="1" source="Yto9Z8n8FKqg5uBb4XyI-12" target="Yto9Z8n8FKqg5uBb4XyI-7" edge="1">
          <mxGeometry width="50" height="50" relative="1" as="geometry">
            <mxPoint x="133" y="389" as="sourcePoint" />
            <mxPoint x="405.03" y="280" as="targetPoint" />
          </mxGeometry>
        </mxCell>
        <mxCell id="Yto9Z8n8FKqg5uBb4XyI-25" value="" style="endArrow=classic;startArrow=classic;html=1;rounded=0;exitX=0.5;exitY=0;exitDx=0;exitDy=0;entryX=0.25;entryY=1;entryDx=0;entryDy=0;" parent="1" source="Yto9Z8n8FKqg5uBb4XyI-14" target="Yto9Z8n8FKqg5uBb4XyI-7" edge="1">
          <mxGeometry width="50" height="50" relative="1" as="geometry">
            <mxPoint x="235" y="390" as="sourcePoint" />
            <mxPoint x="414" y="284" as="targetPoint" />
          </mxGeometry>
        </mxCell>
        <mxCell id="Yto9Z8n8FKqg5uBb4XyI-26" value="" style="endArrow=classic;startArrow=classic;html=1;rounded=0;exitX=0.25;exitY=0;exitDx=0;exitDy=0;entryX=0.5;entryY=1;entryDx=0;entryDy=0;" parent="1" source="Yto9Z8n8FKqg5uBb4XyI-15" target="Yto9Z8n8FKqg5uBb4XyI-7" edge="1">
          <mxGeometry width="50" height="50" relative="1" as="geometry">
            <mxPoint x="245" y="400" as="sourcePoint" />
            <mxPoint x="424" y="294" as="targetPoint" />
          </mxGeometry>
        </mxCell>
        <mxCell id="Yto9Z8n8FKqg5uBb4XyI-27" value="" style="endArrow=classic;startArrow=classic;html=1;rounded=0;exitX=0.333;exitY=0.006;exitDx=0;exitDy=0;entryX=0.75;entryY=1;entryDx=0;entryDy=0;exitPerimeter=0;" parent="1" source="Yto9Z8n8FKqg5uBb4XyI-16" target="Yto9Z8n8FKqg5uBb4XyI-7" edge="1">
          <mxGeometry width="50" height="50" relative="1" as="geometry">
            <mxPoint x="255" y="410" as="sourcePoint" />
            <mxPoint x="434" y="304" as="targetPoint" />
          </mxGeometry>
        </mxCell>
        <mxCell id="Yto9Z8n8FKqg5uBb4XyI-28" value="" style="endArrow=classic;startArrow=classic;html=1;rounded=0;exitX=0.389;exitY=-0.069;exitDx=0;exitDy=0;entryX=1;entryY=1;entryDx=0;entryDy=0;exitPerimeter=0;" parent="1" source="Yto9Z8n8FKqg5uBb4XyI-19" target="Yto9Z8n8FKqg5uBb4XyI-7" edge="1">
          <mxGeometry width="50" height="50" relative="1" as="geometry">
            <mxPoint x="265" y="420" as="sourcePoint" />
            <mxPoint x="444" y="314" as="targetPoint" />
          </mxGeometry>
        </mxCell>
        <mxCell id="Yto9Z8n8FKqg5uBb4XyI-29" value="" style="endArrow=none;html=1;rounded=0;exitX=0.5;exitY=0;exitDx=0;exitDy=0;entryX=0.5;entryY=1;entryDx=0;entryDy=0;" parent="1" source="Yto9Z8n8FKqg5uBb4XyI-18" target="Yto9Z8n8FKqg5uBb4XyI-15" edge="1">
          <mxGeometry width="50" height="50" relative="1" as="geometry">
            <mxPoint x="390" y="430" as="sourcePoint" />
            <mxPoint x="485" y="430" as="targetPoint" />
          </mxGeometry>
        </mxCell>
        <mxCell id="Yto9Z8n8FKqg5uBb4XyI-30" value="" style="endArrow=none;html=1;rounded=0;exitX=0.5;exitY=0;exitDx=0;exitDy=0;entryX=0.5;entryY=1;entryDx=0;entryDy=0;" parent="1" source="Yto9Z8n8FKqg5uBb4XyI-40" edge="1">
          <mxGeometry width="50" height="50" relative="1" as="geometry">
            <mxPoint x="600" y="480" as="sourcePoint" />
            <mxPoint x="600" y="420" as="targetPoint" />
          </mxGeometry>
        </mxCell>
        <mxCell id="Yto9Z8n8FKqg5uBb4XyI-31" value="" style="endArrow=none;html=1;rounded=0;exitX=0.25;exitY=0;exitDx=0;exitDy=0;entryX=0.5;entryY=1;entryDx=0;entryDy=0;" parent="1" source="Yto9Z8n8FKqg5uBb4XyI-36" edge="1">
          <mxGeometry width="50" height="50" relative="1" as="geometry">
            <mxPoint x="99.5" y="480" as="sourcePoint" />
            <mxPoint x="99.5" y="420" as="targetPoint" />
          </mxGeometry>
        </mxCell>
        <mxCell id="Yto9Z8n8FKqg5uBb4XyI-32" value="" style="endArrow=none;html=1;rounded=0;exitX=0.5;exitY=0;exitDx=0;exitDy=0;entryX=0.5;entryY=1;entryDx=0;entryDy=0;" parent="1" source="Yto9Z8n8FKqg5uBb4XyI-35" edge="1">
          <mxGeometry width="50" height="50" relative="1" as="geometry">
            <mxPoint x="80" y="480" as="sourcePoint" />
            <mxPoint x="80" y="420" as="targetPoint" />
          </mxGeometry>
        </mxCell>
        <mxCell id="Yto9Z8n8FKqg5uBb4XyI-33" value="" style="endArrow=none;html=1;rounded=0;exitX=0.5;exitY=0;exitDx=0;exitDy=0;entryX=0.5;entryY=1;entryDx=0;entryDy=0;" parent="1" source="Yto9Z8n8FKqg5uBb4XyI-17" edge="1">
          <mxGeometry width="50" height="50" relative="1" as="geometry">
            <mxPoint x="350" y="481.25" as="sourcePoint" />
            <mxPoint x="350" y="421.25" as="targetPoint" />
          </mxGeometry>
        </mxCell>
        <mxCell id="Yto9Z8n8FKqg5uBb4XyI-34" value="" style="endArrow=none;html=1;rounded=0;exitX=0.5;exitY=0;exitDx=0;exitDy=0;entryX=0.5;entryY=1;entryDx=0;entryDy=0;" parent="1" source="Yto9Z8n8FKqg5uBb4XyI-13" edge="1">
          <mxGeometry width="50" height="50" relative="1" as="geometry">
            <mxPoint x="380" y="481.25" as="sourcePoint" />
            <mxPoint x="380" y="421.25" as="targetPoint" />
          </mxGeometry>
        </mxCell>
        <mxCell id="Yto9Z8n8FKqg5uBb4XyI-35" value="Innlogging&lt;br&gt;MinID,Feide" style="rounded=1;whiteSpace=wrap;html=1;" parent="1" vertex="1">
          <mxGeometry y="485" width="70" height="35" as="geometry" />
        </mxCell>
        <mxCell id="Yto9Z8n8FKqg5uBb4XyI-36" value="Innlogging&lt;br&gt;fb,google" style="rounded=1;whiteSpace=wrap;html=1;" parent="1" vertex="1">
          <mxGeometry x="80" y="490" width="60" height="30" as="geometry" />
        </mxCell>
        <mxCell id="Yto9Z8n8FKqg5uBb4XyI-37" value="2FA:&lt;br&gt;UID, microsoft" style="rounded=1;whiteSpace=wrap;html=1;" parent="1" vertex="1">
          <mxGeometry x="170" y="480" width="60" height="60" as="geometry" />
        </mxCell>
        <mxCell id="Yto9Z8n8FKqg5uBb4XyI-38" value="" style="endArrow=none;html=1;rounded=0;exitX=0.5;exitY=0;exitDx=0;exitDy=0;entryX=0.5;entryY=1;entryDx=0;entryDy=0;" parent="1" source="Yto9Z8n8FKqg5uBb4XyI-37" edge="1">
          <mxGeometry width="50" height="50" relative="1" as="geometry">
            <mxPoint x="190" y="478.75" as="sourcePoint" />
            <mxPoint x="210" y="420" as="targetPoint" />
          </mxGeometry>
        </mxCell>
        <mxCell id="Yto9Z8n8FKqg5uBb4XyI-41" value="" style="endArrow=none;html=1;rounded=0;exitX=0.5;exitY=0;exitDx=0;exitDy=0;entryX=0.5;entryY=1;entryDx=0;entryDy=0;" parent="1" target="Yto9Z8n8FKqg5uBb4XyI-40" edge="1">
          <mxGeometry width="50" height="50" relative="1" as="geometry">
            <mxPoint x="600" y="480" as="sourcePoint" />
            <mxPoint x="600" y="420" as="targetPoint" />
          </mxGeometry>
        </mxCell>
        <mxCell id="Yto9Z8n8FKqg5uBb4XyI-40" value="kommuni-&lt;br&gt;kasjon" style="rounded=1;whiteSpace=wrap;html=1;" parent="1" vertex="1">
          <mxGeometry x="570" y="480" width="61.5" height="40" as="geometry" />
        </mxCell>
        <mxCell id="Yto9Z8n8FKqg5uBb4XyI-42" value="" style="endArrow=none;html=1;rounded=0;exitX=0.5;exitY=0;exitDx=0;exitDy=0;entryX=0.5;entryY=1;entryDx=0;entryDy=0;" parent="1" edge="1">
          <mxGeometry width="50" height="50" relative="1" as="geometry">
            <mxPoint x="731" y="481.25" as="sourcePoint" />
            <mxPoint x="730" y="421.25" as="targetPoint" />
          </mxGeometry>
        </mxCell>
        <mxCell id="Yto9Z8n8FKqg5uBb4XyI-43" value="Balance&lt;br&gt;sheet" style="rounded=1;whiteSpace=wrap;html=1;" parent="1" vertex="1">
          <mxGeometry x="700" y="482.5" width="61.5" height="40" as="geometry" />
        </mxCell>
        <mxCell id="Yto9Z8n8FKqg5uBb4XyI-45" value="" style="endArrow=classic;startArrow=classic;html=1;rounded=0;entryX=0.614;entryY=1.029;entryDx=0;entryDy=0;entryPerimeter=0;exitX=0.333;exitY=0.033;exitDx=0;exitDy=0;exitPerimeter=0;" parent="1" source="Yto9Z8n8FKqg5uBb4XyI-46" target="Yto9Z8n8FKqg5uBb4XyI-35" edge="1">
          <mxGeometry width="50" height="50" relative="1" as="geometry">
            <mxPoint x="50" y="570" as="sourcePoint" />
            <mxPoint x="279" y="585" as="targetPoint" />
          </mxGeometry>
        </mxCell>
        <mxCell id="Yto9Z8n8FKqg5uBb4XyI-46" value="&lt;br&gt;Profile&amp;nbsp;&lt;br&gt;DB" style="strokeWidth=2;html=1;shape=mxgraph.flowchart.database;whiteSpace=wrap;" parent="1" vertex="1">
          <mxGeometry x="40" y="570" width="60" height="60" as="geometry" />
        </mxCell>
        <mxCell id="Yto9Z8n8FKqg5uBb4XyI-47" value="" style="endArrow=classic;startArrow=classic;html=1;rounded=0;entryX=0.5;entryY=1;entryDx=0;entryDy=0;exitX=0.85;exitY=0.017;exitDx=0;exitDy=0;exitPerimeter=0;" parent="1" source="Yto9Z8n8FKqg5uBb4XyI-46" target="Yto9Z8n8FKqg5uBb4XyI-36" edge="1">
          <mxGeometry width="50" height="50" relative="1" as="geometry">
            <mxPoint x="70" y="582" as="sourcePoint" />
            <mxPoint x="53" y="531" as="targetPoint" />
          </mxGeometry>
        </mxCell>
        <mxCell id="Yto9Z8n8FKqg5uBb4XyI-48" value="Data Base" style="strokeWidth=2;html=1;shape=mxgraph.flowchart.database;whiteSpace=wrap;" parent="1" vertex="1">
          <mxGeometry x="170" y="570" width="60" height="60" as="geometry" />
        </mxCell>
        <mxCell id="Yto9Z8n8FKqg5uBb4XyI-49" value="" style="endArrow=classic;startArrow=classic;html=1;rounded=0;entryX=0.5;entryY=1;entryDx=0;entryDy=0;exitX=0.5;exitY=0;exitDx=0;exitDy=0;exitPerimeter=0;" parent="1" source="Yto9Z8n8FKqg5uBb4XyI-48" edge="1">
          <mxGeometry width="50" height="50" relative="1" as="geometry">
            <mxPoint x="180" y="591" as="sourcePoint" />
            <mxPoint x="199" y="540" as="targetPoint" />
          </mxGeometry>
        </mxCell>
        <mxCell id="Yto9Z8n8FKqg5uBb4XyI-50" value="&lt;br&gt;Handlelist&lt;br&gt;DB" style="strokeWidth=2;html=1;shape=mxgraph.flowchart.database;whiteSpace=wrap;" parent="1" vertex="1">
          <mxGeometry x="339.05" y="570" width="60" height="60" as="geometry" />
        </mxCell>
        <mxCell id="Yto9Z8n8FKqg5uBb4XyI-51" value="&lt;br&gt;Melding&lt;br&gt;DB" style="strokeWidth=2;html=1;shape=mxgraph.flowchart.database;whiteSpace=wrap;" parent="1" vertex="1">
          <mxGeometry x="590" y="570" width="60" height="60" as="geometry" />
        </mxCell>
        <mxCell id="Yto9Z8n8FKqg5uBb4XyI-52" value="&lt;br&gt;Betaling&lt;br&gt;DB" style="strokeWidth=2;html=1;shape=mxgraph.flowchart.database;whiteSpace=wrap;" parent="1" vertex="1">
          <mxGeometry x="460" y="570" width="60" height="60" as="geometry" />
        </mxCell>
        <mxCell id="Yto9Z8n8FKqg5uBb4XyI-53" value="&lt;br&gt;Finance&lt;br&gt;DB" style="strokeWidth=2;html=1;shape=mxgraph.flowchart.database;whiteSpace=wrap;" parent="1" vertex="1">
          <mxGeometry x="715" y="570" width="60" height="60" as="geometry" />
        </mxCell>
        <mxCell id="Yto9Z8n8FKqg5uBb4XyI-55" value="" style="endArrow=classic;startArrow=classic;html=1;rounded=0;entryX=0.5;entryY=1;entryDx=0;entryDy=0;exitX=0.5;exitY=0;exitDx=0;exitDy=0;exitPerimeter=0;" parent="1" source="Yto9Z8n8FKqg5uBb4XyI-53" edge="1">
          <mxGeometry width="50" height="50" relative="1" as="geometry">
            <mxPoint x="745.5" y="552.5" as="sourcePoint" />
            <mxPoint x="744.5" y="522.5" as="targetPoint" />
          </mxGeometry>
        </mxCell>
        <mxCell id="Yto9Z8n8FKqg5uBb4XyI-56" value="" style="endArrow=classic;startArrow=classic;html=1;rounded=0;entryX=0.5;entryY=1;entryDx=0;entryDy=0;exitX=0.5;exitY=0;exitDx=0;exitDy=0;exitPerimeter=0;" parent="1" source="Yto9Z8n8FKqg5uBb4XyI-51" edge="1">
          <mxGeometry width="50" height="50" relative="1" as="geometry">
            <mxPoint x="610" y="560" as="sourcePoint" />
            <mxPoint x="610" y="522.5" as="targetPoint" />
          </mxGeometry>
        </mxCell>
        <mxCell id="Yto9Z8n8FKqg5uBb4XyI-57" value="" style="endArrow=classic;startArrow=classic;html=1;rounded=0;entryX=0.5;entryY=1;entryDx=0;entryDy=0;exitX=0.5;exitY=0;exitDx=0;exitDy=0;exitPerimeter=0;" parent="1" source="Yto9Z8n8FKqg5uBb4XyI-52" edge="1">
          <mxGeometry width="50" height="50" relative="1" as="geometry">
            <mxPoint x="490.5" y="545" as="sourcePoint" />
            <mxPoint x="489.5" y="515" as="targetPoint" />
          </mxGeometry>
        </mxCell>
        <mxCell id="Yto9Z8n8FKqg5uBb4XyI-58" value="" style="endArrow=classic;startArrow=classic;html=1;rounded=0;entryX=0.5;entryY=1;entryDx=0;entryDy=0;exitX=0.5;exitY=0;exitDx=0;exitDy=0;exitPerimeter=0;" parent="1" source="Yto9Z8n8FKqg5uBb4XyI-50" edge="1">
          <mxGeometry width="50" height="50" relative="1" as="geometry">
            <mxPoint x="391" y="550" as="sourcePoint" />
            <mxPoint x="390" y="520" as="targetPoint" />
          </mxGeometry>
        </mxCell>
        <mxCell id="Yto9Z8n8FKqg5uBb4XyI-59" value="" style="endArrow=classic;startArrow=classic;html=1;rounded=0;entryX=0.5;entryY=1;entryDx=0;entryDy=0;exitX=0.249;exitY=0.008;exitDx=0;exitDy=0;exitPerimeter=0;" parent="1" source="Yto9Z8n8FKqg5uBb4XyI-50" target="Yto9Z8n8FKqg5uBb4XyI-17" edge="1">
          <mxGeometry width="50" height="50" relative="1" as="geometry">
            <mxPoint x="260" y="630" as="sourcePoint" />
            <mxPoint x="259" y="600" as="targetPoint" />
          </mxGeometry>
        </mxCell>
        <mxCell id="Yto9Z8n8FKqg5uBb4XyI-60" value="Microservice Arcitektur for KID app" style="text;html=1;strokeColor=none;fillColor=none;align=center;verticalAlign=middle;whiteSpace=wrap;rounded=0;" parent="1" vertex="1">
          <mxGeometry x="30" y="10" width="250" height="30" as="geometry" />
        </mxCell>
      </root>
    </mxGraphModel>
  </diagram>
  <diagram id="f1XwY0tl_wbji9oxtLj5" name="Page-2">
    <mxGraphModel dx="1194" dy="616" grid="1" gridSize="10" guides="1" tooltips="1" connect="1" arrows="1" fold="1" page="1" pageScale="1" pageWidth="827" pageHeight="1169" math="0" shadow="0">
      <root>
        <mxCell id="0" />
        <mxCell id="1" parent="0" />
      </root>
    </mxGraphModel>
  </diagram>
</mxfile>
